<svg width="112" height="54" viewBox="0 0 112 54" fill="none" xmlns="http://www.w3.org/2000/svg">
<path d="M107.801 43.6993V38.322H110.341C111.214 38.322 111.651 38.7584 111.651 39.6313V40.0988C111.651 40.2755 111.599 40.4262 111.495 40.5508L111.222 40.8782L111.549 41.1509C111.721 41.2912 111.806 41.499 111.806 41.7744V42.39C111.806 43.2628 111.37 43.6993 110.497 43.6993H107.801ZM108.923 42.6862H110.45C110.606 42.6862 110.684 42.6082 110.684 42.4524V41.6731C110.684 41.5172 110.606 41.4393 110.45 41.4393H108.923V42.6862ZM108.923 40.4262H110.295C110.45 40.4262 110.528 40.3482 110.528 40.1924V39.5689C110.528 39.4131 110.45 39.3351 110.295 39.3351H108.923V40.4262Z" fill="url(#paint0_linear_258_185)"/>
<path d="M102.094 42.39V38.322H103.216V42.4524C103.216 42.6082 103.294 42.6862 103.45 42.6862H104.977C105.133 42.6862 105.211 42.6082 105.211 42.4524V38.322H106.333V42.39C106.333 43.2628 105.897 43.6993 105.024 43.6993H103.403C102.53 43.6993 102.094 43.2628 102.094 42.39Z" fill="url(#paint1_linear_258_185)"/>
<path d="M97.6367 43.6993V38.322H98.7589V42.6862H101.081V43.6993H97.6367Z" fill="url(#paint2_linear_258_185)"/>
<path d="M92.4629 42.39V39.6313C92.4629 38.7584 92.8993 38.322 93.7721 38.322H95.8529L96.375 38.7273V39.3351H93.8189C93.663 39.3351 93.5851 39.4131 93.5851 39.5689V42.4524C93.5851 42.6082 93.663 42.6862 93.8189 42.6862H96.375V43.294L95.8529 43.6993H93.7721C92.8993 43.6993 92.4629 43.2628 92.4629 42.39Z" fill="url(#paint3_linear_258_185)"/>
<path d="M85.3848 43.294V42.6862H87.8006C87.9565 42.6862 88.0344 42.6082 88.0344 42.4524V41.8913C88.0344 41.7406 87.9695 41.6549 87.8396 41.6341L86.3199 41.3224C85.6965 41.1977 85.3848 40.7794 85.3848 40.0677V39.6313C85.3848 38.7584 85.8212 38.322 86.694 38.322H88.4786L89.0008 38.7273V39.3351H86.7408C86.5849 39.3351 86.507 39.4131 86.507 39.5689V40.0755C86.507 40.2209 86.5719 40.3067 86.7018 40.3326L88.2215 40.6366C88.8449 40.7613 89.1566 41.1795 89.1566 41.8913V42.39C89.1566 43.2628 88.7202 43.6993 87.8474 43.6993H85.9069L85.3848 43.294Z" fill="url(#paint4_linear_258_185)"/>
<path d="M80.1621 39.3351V38.322H84.5574V39.3351H82.9209V43.6993H81.7987V39.3351H80.1621Z" fill="url(#paint5_linear_258_185)"/>
<path d="M74.627 43.6993V38.322H75.8427L77.978 41.8523V38.322H79.1002V43.6993H77.8845L75.7492 40.169V43.6993H74.627Z" fill="url(#paint6_linear_258_185)"/>
<path d="M69.6895 43.6993V38.322H73.3678V39.3351H70.8117V40.4262H73.134V41.4393H70.8117V42.6862H73.3678V43.6993H69.6895Z" fill="url(#paint7_linear_258_185)"/>
<path d="M64.0898 43.6993V38.322H66.1316C67.5967 38.322 68.3293 39.0546 68.3293 40.5197V41.5016C68.3293 42.9667 67.5967 43.6993 66.1316 43.6993H64.0898ZM65.212 42.6862H66.194C66.8694 42.6862 67.2071 42.3485 67.2071 41.6731V40.3482C67.2071 39.6728 66.8694 39.3351 66.194 39.3351H65.212V42.6862Z" fill="url(#paint8_linear_258_185)"/>
<path d="M58.3828 42.39V38.322H59.505V42.4524C59.505 42.6082 59.583 42.6862 59.7388 42.6862H61.2663C61.4221 42.6862 61.5001 42.6082 61.5001 42.4524V38.322H62.6223V42.39C62.6223 43.2628 62.1858 43.6993 61.313 43.6993H59.6921C58.8192 43.6993 58.3828 43.2628 58.3828 42.39Z" fill="url(#paint9_linear_258_185)"/>
<path d="M52.9727 39.3351V38.322H57.368V39.3351H55.7314V43.6993H54.6092V39.3351H52.9727Z" fill="url(#paint10_linear_258_185)"/>
<path d="M48.375 43.294V42.6862H50.7909C50.9467 42.6862 51.0247 42.6082 51.0247 42.4524V41.8913C51.0247 41.7406 50.9597 41.6549 50.8298 41.6341L49.3102 41.3224C48.6867 41.1977 48.375 40.7794 48.375 40.0677V39.6313C48.375 38.7584 48.8114 38.322 49.6842 38.322H51.4689L51.991 38.7273V39.3351H49.731C49.5751 39.3351 49.4972 39.4131 49.4972 39.5689V40.0755C49.4972 40.2209 49.5622 40.3067 49.692 40.3326L51.2117 40.6366C51.8351 40.7613 52.1469 41.1795 52.1469 41.8913V42.39C52.1469 43.2628 51.7105 43.6993 50.8376 43.6993H48.8971L48.375 43.294Z" fill="url(#paint11_linear_258_185)"/>
<path d="M41.2168 43.6993V38.322H43.8353C44.7081 38.322 45.1445 38.7584 45.1445 39.6313V40.5197C45.1445 41.1691 44.9029 41.5743 44.4198 41.7354L45.3004 43.4655L45.1679 43.6993H44.2016L43.2508 41.8289H42.339V43.6993H41.2168ZM42.339 40.8158H43.7885C43.9444 40.8158 44.0223 40.7379 44.0223 40.582V39.5689C44.0223 39.4131 43.9444 39.3351 43.7885 39.3351H42.339V40.8158Z" fill="url(#paint12_linear_258_185)"/>
<path d="M36.2793 43.6993V38.322H39.9576V39.3351H37.4015V40.4262H39.7238V41.4393H37.4015V42.6862H39.9576V43.6993H36.2793Z" fill="url(#paint13_linear_258_185)"/>
<path d="M31.0762 43.6993V38.322H33.6947C34.5675 38.322 35.0039 38.7584 35.0039 39.6313V40.6755C35.0039 41.5484 34.5675 41.9848 33.6947 41.9848H32.1984V43.6993H31.0762ZM32.1984 40.9717H33.6479C33.8038 40.9717 33.8817 40.8937 33.8817 40.7379V39.5689C33.8817 39.4131 33.8038 39.3351 33.6479 39.3351H32.1984V40.9717Z" fill="url(#paint14_linear_258_185)"/>
<path d="M25.2461 42.39V39.6313C25.2461 38.7584 25.6825 38.322 26.5553 38.322H28.3322C29.205 38.322 29.6414 38.7584 29.6414 39.6313V42.39C29.6414 43.2628 29.205 43.6993 28.3322 43.6993H26.5553C25.6825 43.6993 25.2461 43.2628 25.2461 42.39ZM26.3683 42.4524C26.3683 42.6082 26.4462 42.6862 26.6021 42.6862H28.2854C28.4413 42.6862 28.5192 42.6082 28.5192 42.4524V39.5689C28.5192 39.4131 28.4413 39.3351 28.2854 39.3351H26.6021C26.4462 39.3351 26.3683 39.4131 26.3683 39.5689V42.4524Z" fill="url(#paint15_linear_258_185)"/>
<path d="M20.8223 43.6993V38.322H21.9445V42.6862H24.2668V43.6993H20.8223Z" fill="url(#paint16_linear_258_185)"/>
<path d="M15.8848 43.6993V38.322H19.5631V39.3351H17.007V40.4262H19.3293V41.4393H17.007V42.6862H19.5631V43.6993H15.8848Z" fill="url(#paint17_linear_258_185)"/>
<path d="M10.0371 38.5324L10.1774 38.322H11.1671L12.3906 42.6862H12.5153L13.7466 38.322H14.7286L14.8688 38.5324L13.3414 43.6993H11.5646L10.0371 38.5324Z" fill="url(#paint18_linear_258_185)"/>
<path d="M5.59961 43.6993V38.322H9.27795V39.3351H6.72182V40.4262H9.04416V41.4393H6.72182V42.6862H9.27795V43.6993H5.59961Z" fill="url(#paint19_linear_258_185)"/>
<path d="M0 43.6991V38.3219H2.04179C3.5069 38.3219 4.23945 39.0545 4.23945 40.5196V41.5015C4.23945 42.9666 3.5069 43.6991 2.04179 43.6991H0ZM1.12221 42.686H2.10414C2.77954 42.686 3.11724 42.3483 3.11724 41.6729V40.3481C3.11724 39.6727 2.77954 39.335 2.10414 39.335H1.12221V42.686Z" fill="url(#paint20_linear_258_185)"/>
<path d="M73.5137 53.5703V49.2686H75.6085C76.3067 49.2686 76.6558 49.6177 76.6558 50.3159V51.1514C76.6558 51.8496 76.3067 52.1988 75.6085 52.1988H74.4114V53.5703H73.5137ZM74.4114 51.3883H75.5711C75.6957 51.3883 75.7581 51.3259 75.7581 51.2012V50.2661C75.7581 50.1414 75.6957 50.079 75.5711 50.079H74.4114V51.3883Z" fill="url(#paint21_linear_258_185)"/>
<path d="M67.6133 53.5703V49.2686H68.6856L69.8951 51.8496L71.1046 49.2686H72.1769V53.5703H71.2792V50.8521L70.2692 53.0092H69.521L68.511 50.8521V53.5703H67.6133Z" fill="url(#paint22_linear_258_185)"/>
<path d="M63.2578 53.5703V49.2686H65.3526C66.0509 49.2686 66.4 49.6177 66.4 50.3159V51.0267C66.4 51.5462 66.2067 51.8704 65.8202 51.9993L66.5247 53.3833L66.4187 53.5703H65.6456L64.885 52.0741H64.1556V53.5703H63.2578ZM64.1556 51.2636H65.3152C65.4399 51.2636 65.5022 51.2012 65.5022 51.0766V50.2661C65.5022 50.1414 65.4399 50.079 65.3152 50.079H64.1556V51.2636Z" fill="url(#paint23_linear_258_185)"/>
<path d="M56.959 50.079V49.2686H60.4752V50.079H59.166V53.5703H58.2682V50.079H56.959Z" fill="url(#paint24_linear_258_185)"/>
<path d="M53.1562 53.2462V52.7599H55.0889C55.2136 52.7599 55.276 52.6975 55.276 52.5728V52.1239C55.276 52.0034 55.224 51.9348 55.1201 51.9182L53.9044 51.6688C53.4056 51.5691 53.1562 51.2345 53.1562 50.6651V50.3159C53.1562 49.6177 53.5054 49.2686 54.2036 49.2686H55.6313L56.0491 49.5927V50.079H54.2411C54.1164 50.079 54.054 50.1414 54.054 50.2661V50.6713C54.054 50.7877 54.106 50.8563 54.2099 50.8771L55.4256 51.1202C55.9244 51.2199 56.1737 51.5545 56.1737 52.1239V52.523C56.1737 53.2212 55.8246 53.5703 55.1263 53.5703H53.574L53.1562 53.2462Z" fill="url(#paint25_linear_258_185)"/>
<path d="M51.1133 53.5703V49.2686H52.011V53.5703H51.1133Z" fill="url(#paint26_linear_258_185)"/>
<path d="M43.4023 53.5703V49.2686H44.4747L45.6842 51.8496L46.8937 49.2686H47.966V53.5703H47.0682V50.8521L46.0582 53.0092H45.3101L44.3001 50.8521V53.5703H43.4023Z" fill="url(#paint27_linear_258_185)"/>
<path d="M39.0488 53.5703V49.2686H41.1436C41.8419 49.2686 42.191 49.6177 42.191 50.3159V51.0267C42.191 51.5462 41.9977 51.8704 41.6112 51.9993L42.3157 53.3833L42.2097 53.5703H41.4366L40.676 52.0741H39.9466V53.5703H39.0488ZM39.9466 51.2636H41.1062C41.2309 51.2636 41.2932 51.2012 41.2932 51.0766V50.2661C41.2932 50.1414 41.2309 50.079 41.1062 50.079H39.9466V51.2636Z" fill="url(#paint28_linear_258_185)"/>
<path d="M34.8848 53.2462V52.7599H36.8175C36.9421 52.7599 37.0045 52.6975 37.0045 52.5728V52.1239C37.0045 52.0034 36.9525 51.9348 36.8486 51.9182L35.6329 51.6688C35.1341 51.5691 34.8848 51.2345 34.8848 50.6651V50.3159C34.8848 49.6177 35.2339 49.2686 35.9322 49.2686H37.3599L37.7776 49.5927V50.079H35.9696C35.8449 50.079 35.7825 50.1414 35.7825 50.2661V50.6713C35.7825 50.7877 35.8345 50.8563 35.9384 50.8771L37.1541 51.1202C37.6529 51.2199 37.9023 51.5545 37.9023 52.1239V52.523C37.9023 53.2212 37.5531 53.5703 36.8549 53.5703H35.3025L34.8848 53.2462Z" fill="url(#paint29_linear_258_185)"/>
<path d="M26.2949 17.6027V13.4135L43.0114 5.71985V10.9161L32.619 15.347V15.6692L43.0114 20.1001V25.2963L26.2949 17.6027Z" fill="#1EA7A8"/>
<path d="M47.8184 28.841L59.7818 0H64.978L53.0146 28.841H47.8184Z" fill="#1EA7A8"/>
<path d="M68.6172 25.2963V20.1001L79.0096 15.6692V15.347L68.6172 10.9161V5.71985L85.3337 13.4135V17.6027L68.6172 25.2963Z" fill="#1EA7A8"/>
<defs>
<linearGradient id="paint0_linear_258_185" x1="55.8609" y1="36.5556" x2="55.8609" y2="43.4395" gradientUnits="userSpaceOnUse">
<stop offset="0.02" stop-color="white"/>
</linearGradient>
<linearGradient id="paint1_linear_258_185" x1="55.8607" y1="36.5556" x2="55.8607" y2="43.4395" gradientUnits="userSpaceOnUse">
<stop offset="0.02" stop-color="white"/>
</linearGradient>
<linearGradient id="paint2_linear_258_185" x1="55.8601" y1="36.5556" x2="55.8601" y2="43.4395" gradientUnits="userSpaceOnUse">
<stop offset="0.02" stop-color="white"/>
</linearGradient>
<linearGradient id="paint3_linear_258_185" x1="55.8611" y1="36.5556" x2="55.8611" y2="43.4395" gradientUnits="userSpaceOnUse">
<stop offset="0.02" stop-color="white"/>
</linearGradient>
<linearGradient id="paint4_linear_258_185" x1="55.8601" y1="36.5556" x2="55.8601" y2="43.4395" gradientUnits="userSpaceOnUse">
<stop offset="0.02" stop-color="white"/>
</linearGradient>
<linearGradient id="paint5_linear_258_185" x1="55.8612" y1="36.5556" x2="55.8612" y2="43.4395" gradientUnits="userSpaceOnUse">
<stop offset="0.02" stop-color="white"/>
</linearGradient>
<linearGradient id="paint6_linear_258_185" x1="55.8613" y1="36.5556" x2="55.8613" y2="43.4395" gradientUnits="userSpaceOnUse">
<stop offset="0.02" stop-color="white"/>
</linearGradient>
<linearGradient id="paint7_linear_258_185" x1="55.8609" y1="36.5556" x2="55.8609" y2="43.4395" gradientUnits="userSpaceOnUse">
<stop offset="0.02" stop-color="white"/>
</linearGradient>
<linearGradient id="paint8_linear_258_185" x1="55.8604" y1="36.5556" x2="55.8604" y2="43.4395" gradientUnits="userSpaceOnUse">
<stop offset="0.02" stop-color="white"/>
</linearGradient>
<linearGradient id="paint9_linear_258_185" x1="55.8602" y1="36.5556" x2="55.8602" y2="43.4395" gradientUnits="userSpaceOnUse">
<stop offset="0.02" stop-color="white"/>
</linearGradient>
<linearGradient id="paint10_linear_258_185" x1="55.8609" y1="36.5556" x2="55.8609" y2="43.4395" gradientUnits="userSpaceOnUse">
<stop offset="0.02" stop-color="white"/>
</linearGradient>
<linearGradient id="paint11_linear_258_185" x1="55.8603" y1="36.5556" x2="55.8603" y2="43.4395" gradientUnits="userSpaceOnUse">
<stop offset="0.02" stop-color="white"/>
</linearGradient>
<linearGradient id="paint12_linear_258_185" x1="55.8614" y1="36.5556" x2="55.8614" y2="43.4395" gradientUnits="userSpaceOnUse">
<stop offset="0.02" stop-color="white"/>
</linearGradient>
<linearGradient id="paint13_linear_258_185" x1="55.8609" y1="36.5556" x2="55.8609" y2="43.4395" gradientUnits="userSpaceOnUse">
<stop offset="0.02" stop-color="white"/>
</linearGradient>
<linearGradient id="paint14_linear_258_185" x1="55.8612" y1="36.5556" x2="55.8612" y2="43.4395" gradientUnits="userSpaceOnUse">
<stop offset="0.02" stop-color="white"/>
</linearGradient>
<linearGradient id="paint15_linear_258_185" x1="55.8605" y1="36.5556" x2="55.8605" y2="43.4395" gradientUnits="userSpaceOnUse">
<stop offset="0.02" stop-color="white"/>
</linearGradient>
<linearGradient id="paint16_linear_258_185" x1="55.8619" y1="36.5556" x2="55.8619" y2="43.4395" gradientUnits="userSpaceOnUse">
<stop offset="0.02" stop-color="white"/>
</linearGradient>
<linearGradient id="paint17_linear_258_185" x1="55.8615" y1="36.5556" x2="55.8615" y2="43.4395" gradientUnits="userSpaceOnUse">
<stop offset="0.02" stop-color="white"/>
</linearGradient>
<linearGradient id="paint18_linear_258_185" x1="55.8606" y1="36.5556" x2="55.8606" y2="43.4395" gradientUnits="userSpaceOnUse">
<stop offset="0.02" stop-color="white"/>
</linearGradient>
<linearGradient id="paint19_linear_258_185" x1="55.8614" y1="36.5556" x2="55.8614" y2="43.4395" gradientUnits="userSpaceOnUse">
<stop offset="0.02" stop-color="white"/>
</linearGradient>
<linearGradient id="paint20_linear_258_185" x1="55.861" y1="36.5555" x2="55.861" y2="43.4394" gradientUnits="userSpaceOnUse">
<stop offset="0.02" stop-color="white"/>
</linearGradient>
<linearGradient id="paint21_linear_258_185" x1="55.7967" y1="47.8554" x2="55.7967" y2="55.6485" gradientUnits="userSpaceOnUse">
<stop stop-color="white"/>
</linearGradient>
<linearGradient id="paint22_linear_258_185" x1="55.7972" y1="47.8554" x2="55.7972" y2="55.6485" gradientUnits="userSpaceOnUse">
<stop stop-color="white"/>
</linearGradient>
<linearGradient id="paint23_linear_258_185" x1="55.7961" y1="47.8554" x2="55.7961" y2="55.6485" gradientUnits="userSpaceOnUse">
<stop stop-color="white"/>
</linearGradient>
<linearGradient id="paint24_linear_258_185" x1="55.7975" y1="47.8554" x2="55.7975" y2="55.6485" gradientUnits="userSpaceOnUse">
<stop stop-color="white"/>
</linearGradient>
<linearGradient id="paint25_linear_258_185" x1="55.7971" y1="47.8554" x2="55.7971" y2="55.6485" gradientUnits="userSpaceOnUse">
<stop stop-color="white"/>
</linearGradient>
<linearGradient id="paint26_linear_258_185" x1="55.7966" y1="47.8554" x2="55.7966" y2="55.6485" gradientUnits="userSpaceOnUse">
<stop stop-color="white"/>
</linearGradient>
<linearGradient id="paint27_linear_258_185" x1="55.796" y1="47.8554" x2="55.796" y2="55.6485" gradientUnits="userSpaceOnUse">
<stop stop-color="white"/>
</linearGradient>
<linearGradient id="paint28_linear_258_185" x1="55.7969" y1="47.8554" x2="55.7969" y2="55.6485" gradientUnits="userSpaceOnUse">
<stop stop-color="white"/>
</linearGradient>
<linearGradient id="paint29_linear_258_185" x1="55.7968" y1="47.8554" x2="55.7968" y2="55.6485" gradientUnits="userSpaceOnUse">
<stop stop-color="white"/>
</linearGradient>
</defs>
</svg>
